<svg xmlns="http://www.w3.org/2000/svg">
    <symbol viewBox="0 0 48 48" id="bio">
        <path d="M18.2864 21.2962C18.1887 21.3547 18.0812 21.3826 17.9753 21.3826C17.7645 21.3826 17.5595 21.2725 17.4449 21.0744C17.2726 20.7768 17.3704 20.3938 17.663 20.2188L20.1717 18.7182C20.4641 18.5431 20.8411 18.6424 21.0133 18.94C21.1855 19.2375 21.0878 19.6205 20.7951 19.7956L18.2864 21.2962Z"/>
        <path fill-rule="evenodd" clip-rule="evenodd" d="M41.9907 26.3429L41.485 23.4084C41.4382 23.1367 41.2217 22.9283 40.9524 22.8956L38.3119 22.575L37.3946 20.8515C37.6912 20.3357 37.7888 19.7216 37.662 19.1327C37.5184 18.4658 37.1002 17.8918 36.5143 17.5579L33.9679 16.1062C33.6719 15.9374 33.2972 16.0445 33.131 16.3456C32.965 16.6467 33.0704 17.0276 33.3666 17.1964L35.913 18.6482C36.4988 18.9822 36.6693 19.7603 36.272 20.3158C35.9796 20.7245 35.4491 20.89 34.9812 20.7179L27.7304 18.0497C28.241 17.7093 28.6629 17.2193 28.9235 16.6086C29.1707 16.0291 29.248 15.4044 29.1545 14.7952L31.1873 15.9541C31.2824 16.0083 31.3856 16.0341 31.4874 16.0341C31.7026 16.0341 31.9115 15.919 32.0243 15.7146C32.1903 15.4136 32.0848 15.0327 31.7888 14.8638L27.7962 12.5876C27.623 12.4661 27.4368 12.3609 27.2394 12.2739C26.445 11.9237 25.564 11.9088 24.7587 12.2322C23.9533 12.5556 23.3201 13.1784 22.9755 13.9859C22.893 14.1793 22.8303 14.3765 22.7863 14.5751L11.2003 19.7555C9.51922 19.7983 7.94687 20.6511 6.9729 22.0553C6.77724 22.3374 6.84364 22.7273 7.12119 22.9262C7.39882 23.1252 7.78228 23.0576 7.97786 22.7755C8.74518 21.6692 9.99465 21.0074 11.3221 21.0037L11.3337 21.0038L11.3421 21.0037C13.601 21.0084 15.4372 22.8781 15.4372 25.1757C15.4372 27.4761 13.5962 29.3476 11.3334 29.3476C9.07052 29.3476 7.22955 27.4761 7.22955 25.1757C7.22955 25.0658 7.2348 24.9487 7.24578 24.8177C7.27447 24.4738 7.02331 24.1713 6.68502 24.1422C6.34755 24.1124 6.04926 24.3682 6.02057 24.7122C6.00672 24.8786 6 25.0302 6 25.1757C6 27.1764 7.07143 28.9274 8.66165 29.8669L11.4712 36H12.8274L10.3065 30.4969C10.6388 30.563 10.9822 30.5978 11.3334 30.5978C12.8413 30.5978 14.205 29.9583 15.176 28.9321L18.37 36H19.7234L16.0608 27.8952L25.7993 18.6683L34.5628 21.8932C34.822 21.9886 35.0905 22.0344 35.3567 22.0344C35.7469 22.0344 36.1319 21.9357 36.4748 21.7498L37.2307 23.1698L36.0505 25.5922C35.93 25.8394 35.9832 26.1375 36.1814 26.326L38.3211 28.3615C38.4396 28.4743 38.5905 28.5302 38.741 28.5302C38.9052 28.5302 39.069 28.4637 39.1901 28.3322C39.4221 28.0802 39.4092 27.6847 39.1611 27.4488L37.3551 25.7307L38.2812 23.8299L40.3529 24.0816L40.7797 26.5585C40.8384 26.8986 41.1572 27.1261 41.4914 27.0664C41.8257 27.0068 42.0493 26.6828 41.9907 26.3429ZM25.9522 13.2518C26.7547 13.2518 27.5093 13.7441 27.8209 14.5458C28.3746 15.9713 27.2421 17.4886 25.7426 17.332C24.5048 17.1521 23.8482 16.1142 23.9471 15.0951C23.9487 15.0834 23.9499 15.0717 23.9508 15.06C24.0687 14.0285 24.9309 13.2518 25.9522 13.2518ZM13.3542 20.1579L22.7725 15.9467C22.9625 16.8999 23.5628 17.7544 24.463 18.2258L16.6483 25.6301C16.6606 25.4802 16.6668 25.3287 16.6668 25.1757C16.6668 22.9127 15.296 20.9691 13.3542 20.1579Z"/>
        <path d="M16.3849 36L14.5383 31.9139C14.3966 31.6003 14.0315 31.4626 13.723 31.6069C13.4145 31.751 13.2793 32.1221 13.421 32.4357L15.0317 36H16.3849Z"/>
        <path fill-rule="evenodd" clip-rule="evenodd" d="M14.0511 25.1757C14.0511 23.6523 12.8319 22.4129 11.3334 22.4129C9.83478 22.4129 8.61564 23.6524 8.61564 25.1757C8.61564 26.6991 9.83478 27.9386 11.3334 27.9386C12.8319 27.9386 14.0511 26.6992 14.0511 25.1757ZM9.84511 25.1757C9.84511 24.3415 10.5128 23.6629 11.3333 23.6629C12.1538 23.6629 12.8214 24.3416 12.8214 25.1757C12.8214 26.0099 12.1538 26.6886 11.3333 26.6886C10.5128 26.6886 9.84511 26.01 9.84511 25.1757Z"/>
    </symbol>
    <symbol viewBox="0 0 48 48" id="cpu">
        <path d="M32.4 14.274V12H31.6V14.032C31.4675 14.0118 31.334 14.0013 31.2 14H30.4V12H29.6V14H28.4V12H27.6V14H26.4V12H25.6V14H24.4V12H23.6V14H22.4V12H21.6V14H20.4V12H19.6V14H18.4V12H17.6V14H16.8C16.666 14.0013 16.5325 14.0118 16.4 14.032V12H15.6V14.274C15.0194 14.5514 14.5514 15.0194 14.274 15.6H12V16.4H14.032C14.0118 16.5325 14.0013 16.666 14 16.8V17.6H12V18.4H14V19.6H12V20.4H14V21.6H12V22.4H14V23.6H12V24.4H14V25.6H12V26.4H14V27.6H12V28.4H14V29.6H12V30.4H14V31.2C14.0013 31.334 14.0118 31.4675 14.032 31.6H12V32.4H14.274C14.5514 32.9806 15.0194 33.4486 15.6 33.726V36H16.4V33.968C16.5325 33.9883 16.666 33.9988 16.8 34H17.6V36H18.4V34H19.6V36H20.4V34H21.6V36H22.4V34H23.6V36H24.4V34H25.6V36H26.4V34H27.6V36H28.4V34H29.6V36H30.4V34H31.2C31.334 33.9988 31.4675 33.9883 31.6 33.968V36H32.4V33.726C32.9806 33.4486 33.4486 32.9806 33.726 32.4H36V31.6H33.968C33.9883 31.4675 33.9988 31.334 34 31.2V30.4H36V29.6H34V28.4H36V27.6H34V26.4H36V25.6H34V24.4H36V23.6H34V22.4H36V21.6H34V20.4H36V19.6H34V18.4H36V17.6H34V16.8C33.9988 16.666 33.9883 16.5325 33.968 16.4H36V15.6H33.726C33.4486 15.0194 32.9806 14.5514 32.4 14.274ZM33.2 31.2C33.1986 32.304 32.304 33.1986 31.2 33.2H16.8C15.696 33.1986 14.8014 32.304 14.8 31.2V16.8C14.8014 15.696 15.696 14.8014 16.8 14.8H31.2C32.304 14.8014 33.1986 15.696 33.2 16.8V31.2Z"/>
        <path d="M30.8 16H17.2C16.5374 16 16 16.5374 16 17.2V30.8C16 31.4626 16.5374 32 17.2 32H30.8C31.4626 32 32 31.4626 32 30.8V17.2C32 16.5374 31.4626 16 30.8 16ZM31.2 30.8C31.2 31.021 31.021 31.2 30.8 31.2H17.2C16.979 31.2 16.8 31.021 16.8 30.8V17.2C16.8 16.979 16.979 16.8 17.2 16.8H30.8C31.021 16.8 31.2 16.979 31.2 17.2V30.8Z"/>
        <path d="M29.6 17.6H30.4V18.4H29.6V17.6Z"/>
        <path d="M17.6 29.6H18.4V30.4H17.6V29.6Z"/>
        <path d="M17.6 18.4V19.6H18.4V18.4H19.6V17.6H18.4C17.9581 17.6 17.6 17.9581 17.6 18.4Z"/>
        <path d="M29.6 29.6H28.4V30.4H30.4V28.4H29.6V29.6Z"/>
    </symbol>
    <symbol viewBox="0 0 48 48" id="soul">
        <path fill-rule="evenodd" clip-rule="evenodd" d="M24 39C32.2843 39 39 32.2843 39 24C39 15.7157 32.2843 9 24 9C15.7157 9 9 15.7157 9 24C9 32.2843 15.7157 39 24 39ZM24 40C32.8366 40 40 32.8366 40 24C40 15.1634 32.8366 8 24 8C15.1634 8 8 15.1634 8 24C8 32.8366 15.1634 40 24 40Z"/>
        <path d="M31.9174 21.2461C31.9589 21.1287 31.9941 21.0092 32.0229 20.8881C32.0889 20.536 32.1452 20.4883 32.495 20.4954C32.5535 20.4963 32.61 20.4741 32.652 20.4335C32.6703 20.4115 32.6427 20.3149 32.6088 20.2914C32.5129 20.225 32.4078 20.1489 32.2974 20.1306C31.9908 20.0803 31.9707 20.0441 32.0855 19.7666C32.1329 19.6525 32.1228 19.5127 32.1303 19.3844C32.1489 19.0793 32.3168 18.8377 32.4883 18.6094C32.6002 18.4603 32.8299 18.5527 32.8937 18.7496C32.922 18.8377 32.9523 18.9249 32.9817 19.0126L33.0321 18.9995C32.9821 18.7914 32.9321 18.5833 32.878 18.3588C32.9489 18.3517 32.9877 18.3364 33.0175 18.3469C33.157 18.3954 33.2532 18.3469 33.3382 18.235C33.3987 18.1544 33.4591 18.1052 33.5516 18.2313C33.9154 18.7174 34.1474 19.2893 34.2251 19.8916C34.2619 20.1487 34.3149 20.4031 34.384 20.6535C34.4899 21.0592 34.4876 21.468 34.4634 21.8976C34.3276 21.296 34.1145 20.7144 33.8294 20.1676L33.7846 20.184C33.8372 20.319 33.8872 20.4547 33.942 20.5886C34.1703 21.1424 34.1408 21.6854 33.8771 22.2202C33.8503 22.275 33.8421 22.3388 33.8178 22.3951C33.7664 22.5122 33.7705 22.6502 33.8902 22.6752C33.9674 22.6912 34.0916 22.5894 34.1598 22.5103C34.2281 22.4313 34.2422 22.3183 34.2889 22.2239C34.3203 22.1683 34.356 22.1153 34.3959 22.0654L34.4634 22.0848C34.4462 22.2243 34.438 22.3656 34.4093 22.5029C34.372 22.6785 34.3243 22.8523 34.2713 23.025C34.2184 23.1977 34.1222 23.229 34.0006 23.1134C33.879 22.9978 33.7328 22.9038 33.7022 22.7031C33.6866 22.6021 33.5687 22.5167 33.4971 22.4242C33.4307 22.5212 33.3595 22.6155 33.3006 22.7166C33.2811 22.7562 33.2782 22.8019 33.2924 22.8437C33.3968 23.1145 33.4229 23.4169 33.6687 23.6291C33.8458 23.7824 33.7727 23.9771 33.5448 24.0491C33.518 24.0597 33.4939 24.0761 33.474 24.097C33.4542 24.1179 33.4392 24.1429 33.43 24.1703C33.3464 24.5518 33.0291 24.6286 32.7255 24.7077C32.533 24.7522 32.3367 24.7779 32.1392 24.7845C32.0889 24.7875 31.9964 24.7278 31.9875 24.6838C31.9479 24.5024 31.9249 24.3178 31.9185 24.1322C31.9088 23.744 31.9155 23.3558 31.9155 22.9661C32.1765 22.9437 32.2396 22.868 32.1765 22.5931C32.1281 22.3847 32.0606 22.1807 31.9867 21.9248L31.7342 22.4637C31.6473 22.3578 31.5634 22.2892 31.5235 22.2027C31.4116 21.9606 31.2998 21.7156 31.2315 21.4605C31.1916 21.3113 31.2248 21.1417 31.2446 20.9832C31.249 20.9459 31.3274 20.8944 31.377 20.8877C31.5511 20.8631 31.7361 20.991 31.8051 21.1648C31.8185 21.1911 31.8343 21.2161 31.8525 21.2394L31.9174 21.2461ZM33.5381 19.8562L33.5971 19.8136C33.4931 19.6692 33.3892 19.525 33.2853 19.381L33.2264 19.4235C33.3298 19.5675 33.4337 19.7117 33.5381 19.8562Z"/>
        <path d="M30.7896 19.7057C30.8198 19.4447 30.8287 19.2429 30.8701 19.0501C30.8957 18.9425 30.9494 18.8435 31.0256 18.7633C31.2494 18.528 31.4358 18.2785 31.5477 17.963C31.6529 17.6602 31.8871 17.4532 32.2351 17.4606C32.332 17.4606 32.4588 17.5173 32.5129 17.5912C32.5476 17.6374 32.4995 17.7814 32.4476 17.8522C32.2768 18.0805 32.2019 18.3438 32.0986 18.6026C31.8897 19.1247 31.924 19.6841 31.779 20.214C31.7469 20.3311 31.6525 20.5146 31.5753 20.5206C31.3467 20.5385 31.0659 20.5668 30.9492 20.2901C30.8626 20.0872 30.8306 19.8635 30.7896 19.7057Z"/>
        <path d="M30.5811 30.1401C30.5595 30.2729 30.5628 30.3669 30.5278 30.443C30.432 30.664 30.3218 30.8784 30.1977 31.0848C30.1179 31.2116 29.9829 31.3022 29.8863 31.4204C29.7444 31.5899 29.6122 31.7672 29.4902 31.9515C29.3541 32.1637 29.2538 32.399 29.1102 32.6064C29.0095 32.7507 28.8689 32.8704 28.7336 32.9864C28.5341 33.1614 28.3257 33.3259 28.1093 33.4794C28.003 33.554 27.8586 33.5704 27.7438 33.6345C27.6487 33.6879 27.5271 33.7565 27.4947 33.8464C27.3988 34.1123 27.1363 34.0828 26.9528 34.1887C26.9498 34.1906 26.8629 34.0895 26.8745 34.0679C26.967 33.8829 27.0723 33.7046 27.1896 33.5342C27.655 32.8917 28.2894 32.4177 28.8548 31.8739C29.1792 31.5621 29.4757 31.2209 29.7871 30.895C30.0083 30.663 30.2324 30.434 30.4565 30.205C30.4718 30.1894 30.4961 30.183 30.5811 30.1401Z"/>
        <path d="M15.4317 19.5422C15.5018 19.5478 15.5414 19.5389 15.5626 19.5549C15.7465 19.6929 15.9337 19.8279 16.106 19.9797C16.1742 20.0401 16.1433 20.1091 16.0482 20.1483C15.7573 20.2691 15.4705 20.4004 15.1796 20.5212C14.9931 20.5991 14.7302 20.4347 14.6553 20.2001C14.5874 19.9883 14.6925 19.8245 14.92 19.757C15.0379 19.722 15.1475 19.6593 15.2613 19.6109C15.3284 19.5821 15.3963 19.5564 15.4317 19.5422Z"/>
        <path d="M29.5433 33.6868C29.3427 33.9657 29.1419 34.2447 28.941 34.5236C28.7881 34.7355 28.6471 34.9574 28.4771 35.1543C28.3288 35.3197 28.1648 35.4703 27.9874 35.604C27.9072 35.6663 27.8162 35.6413 27.8252 35.5037C27.8308 35.4176 27.83 35.3311 27.839 35.2453C27.8584 35.0588 27.8599 34.8925 28.0877 34.7791C28.3085 34.6698 28.47 34.4435 28.6654 34.2797C28.9048 34.0784 29.1502 33.8856 29.3979 33.6916C29.4329 33.6713 29.4705 33.6558 29.5097 33.6458L29.5433 33.6868Z"/>
        <path d="M29.6167 32.7516C29.5048 32.9112 29.4235 33.0428 29.3288 33.1659C29.2005 33.3322 29.0677 33.4948 28.9267 33.6507C28.8999 33.6809 28.8369 33.6791 28.7906 33.6921C28.7712 33.6198 28.7134 33.5273 28.7392 33.4788C28.816 33.3334 28.9066 33.1846 29.0271 33.076C29.1658 32.9511 29.3414 32.8672 29.5026 32.7676C29.5201 32.7579 29.5469 32.7617 29.6167 32.7516Z"/>
        <path d="M15.5065 21.6273L15.577 21.4076C15.6543 21.4312 15.7299 21.4605 15.803 21.4952C15.8879 21.5445 15.9682 21.6014 16.0428 21.6653C16.0763 21.6936 16.1173 21.7466 16.111 21.7809C16.1047 21.8152 16.0487 21.8484 16.0073 21.8652C15.9501 21.8869 15.8903 21.9008 15.8294 21.9066C15.5688 21.9342 15.5218 21.8909 15.5065 21.6273Z"/>
        <path d="M17.092 21.403C17.1487 21.2072 17.2039 21.0185 17.258 20.8313C17.4612 20.8619 17.6388 21.0178 17.6287 21.1446C17.6142 21.3381 17.4571 21.4183 17.092 21.403Z"/>
        <path d="M16.7562 21.5277C16.8797 21.5482 16.9681 21.5493 17.0441 21.5799C17.0697 21.5923 17.0922 21.6101 17.1102 21.6322C17.1281 21.6542 17.1409 21.6799 17.1478 21.7075C17.153 21.741 17.0922 21.816 17.0568 21.8193C16.9699 21.8268 16.8558 21.8313 16.8002 21.7821C16.7529 21.7373 16.77 21.6206 16.7562 21.5277Z"/>
        <path d="M16.3804 21.0595C16.4124 20.9312 16.4236 20.8007 16.5847 20.7872C16.5959 20.7872 16.6351 20.8697 16.622 20.8991C16.5851 20.995 16.587 21.162 16.3804 21.0595Z"/>
        <path d="M17.7132 26.3667L17.9597 26.4939C17.9384 26.5245 17.9224 26.577 17.8948 26.5815C17.771 26.6031 17.699 26.5457 17.7132 26.3667Z"/>
        <path d="M23.1221 18.8798C23.0606 18.7992 23.0072 18.7459 23.0143 18.7358C23.079 18.6477 23.1502 18.5646 23.2273 18.4871C23.2617 18.5072 23.293 18.5324 23.3201 18.5616C23.2679 18.656 23.2082 18.7474 23.1221 18.8798Z"/>
        <path fill-rule="evenodd" clip-rule="evenodd" d="M14.302 17.5457C14.2744 17.5987 14.2501 17.6535 14.2296 17.7099C14.1954 17.8167 14.1862 17.9313 14.177 18.0461C14.1722 18.1056 14.1674 18.1652 14.1591 18.2238C14.1378 18.3774 14.249 18.5904 14.4138 18.6124C14.4888 18.6224 14.6029 18.5188 14.6607 18.4389C14.8173 18.2234 15.0642 18.1458 15.2828 18.1179C15.5227 18.087 15.7716 18.1168 16.0188 18.1465C16.0882 18.1548 16.1574 18.1631 16.2263 18.1701C16.4691 18.1951 16.6887 18.4293 16.7633 18.6799C16.7827 18.7455 16.8696 18.8022 16.9375 18.8395C16.9771 18.8623 17.0222 18.8779 17.0669 18.8934C17.1312 18.9157 17.1948 18.9378 17.2403 18.9805C17.6267 19.3411 17.8019 19.8199 17.9444 20.3107C17.9959 20.475 18.0174 20.6472 18.0078 20.819C17.9757 21.1896 17.9282 21.5587 17.8806 21.928C17.8668 22.0352 17.853 22.1424 17.8396 22.2496C17.8313 22.316 17.824 22.3828 17.8166 22.4497C17.7952 22.6459 17.7736 22.8431 17.7255 23.0328C17.6914 23.1667 17.6374 23.2954 17.5833 23.4243C17.5396 23.5283 17.4959 23.6324 17.4626 23.7395C17.4273 23.8535 17.4047 23.9715 17.3822 24.0896C17.3627 24.1913 17.3432 24.2931 17.3156 24.3925C17.2451 24.6472 17.3369 24.9172 17.5748 25.0067C17.8047 25.0941 18.0496 25.1351 18.2953 25.1274C18.5411 25.1197 18.7829 25.0635 19.0069 24.962C19.1986 24.8705 19.4113 24.8319 19.623 24.8501C19.6623 24.8536 19.7011 24.8664 19.7398 24.8793C19.7847 24.8942 19.8294 24.909 19.8747 24.909C20.3226 24.9167 20.7647 25.011 21.1766 25.1869C21.2777 25.2283 21.4623 25.1902 21.5496 25.1164C21.6368 25.0425 21.704 24.8617 21.6741 24.7584C21.6265 24.5935 21.6755 24.4699 21.7268 24.3408C21.7361 24.3174 21.7455 24.2938 21.7543 24.2698C21.7633 24.2719 21.7714 24.273 21.7782 24.2739C21.7901 24.2755 21.7984 24.2766 21.8017 24.2814C22.0556 24.6379 22.2458 25.0067 22.1302 25.4718C22.1121 25.559 22.0763 25.6415 22.025 25.7142C21.9737 25.787 21.9079 25.8484 21.8319 25.8947C21.6626 25.9969 21.4847 26.1035 21.2982 26.1531C21.1395 26.1948 20.97 26.1978 20.8019 26.2007C20.7594 26.2014 20.7171 26.2021 20.675 26.2035C20.6513 26.1996 20.629 26.1898 20.61 26.175C20.591 26.1602 20.5761 26.1409 20.5665 26.1188C20.5579 26.0875 20.5978 26.0275 20.6325 26.0032C20.7063 25.9466 20.7883 25.9017 20.8757 25.8701C20.8781 25.8693 20.8804 25.8686 20.8828 25.8678C20.9903 25.8342 21.0844 25.8046 21.0457 25.6612C21.0142 25.5442 20.9301 25.5536 20.8478 25.5628C20.8318 25.5646 20.8158 25.5664 20.8003 25.5673C20.7372 25.5707 20.674 25.5739 20.6107 25.5772C20.39 25.5885 20.1693 25.5999 19.9489 25.6176C19.8328 25.6334 19.7178 25.6559 19.6043 25.6851C19.6143 25.7203 19.6267 25.7547 19.6416 25.788C19.7874 26.0237 19.7774 26.0342 19.5637 26.2031C19.5297 26.2315 19.502 26.2666 19.4821 26.3062C19.4622 26.3458 19.4506 26.389 19.4481 26.4332C19.4525 26.5324 19.4752 26.6306 19.4979 26.729C19.5114 26.7875 19.5249 26.8461 19.5346 26.905C19.5663 27.0982 19.4719 27.1735 19.2896 27.1459C19.191 27.1319 19.0908 27.154 19.0073 27.2082C18.9129 27.2779 18.8965 27.3965 18.9808 27.5065C18.9961 27.5332 19.0054 27.5628 19.008 27.5934C19.024 27.6699 19.0389 27.7468 19.0539 27.8237C19.0868 27.9929 19.1197 28.1623 19.1635 28.3285C19.1978 28.4586 19.2851 28.5724 19.4447 28.5452C19.5976 28.5194 19.7475 28.4616 19.7028 28.2584C19.6608 28.0561 19.6058 27.8568 19.538 27.6617C19.476 27.4901 19.5835 27.4092 19.692 27.3503C19.8236 27.2789 19.8896 27.393 19.9467 27.4916L19.9482 27.4942C19.9583 27.5116 19.9684 27.529 19.9786 27.5464C20.021 27.6188 20.0634 27.6914 20.1022 27.7657C20.1199 27.7989 20.1397 27.8319 20.1596 27.865C20.2138 27.9553 20.2684 28.0461 20.2801 28.1416C20.3051 28.349 20.4065 28.3732 20.5811 28.3654C21.0908 28.3426 21.6006 28.3307 22.1107 28.3188L22.1589 28.3177C22.223 28.316 22.2876 28.3199 22.3521 28.3238C22.4491 28.3297 22.5459 28.3355 22.6404 28.3225C22.8845 28.2844 23.1265 28.2337 23.3654 28.1707C23.4344 28.1538 23.5015 28.129 23.5687 28.1041C23.6259 28.0829 23.6832 28.0617 23.7417 28.0454C23.9304 27.9932 24.1202 27.9447 24.3123 27.9074C24.3524 27.8997 24.3976 27.9149 24.4421 27.9299C24.4579 27.9352 24.4737 27.9405 24.4891 27.9447C24.6282 27.9824 24.7673 28.0204 24.9053 28.0622C24.9261 28.0685 24.9482 28.0739 24.9704 28.0794C25.0365 28.0956 25.104 28.1122 25.1462 28.1532C25.3498 28.3501 25.5363 28.5601 25.7227 28.7723C25.7366 28.7949 25.7449 28.8204 25.7471 28.8468C25.7493 28.8733 25.7453 28.8998 25.7354 28.9244C25.7168 28.9617 25.6459 29.0072 25.6086 28.999C25.4758 28.9694 25.3473 28.9301 25.2185 28.8908C25.1788 28.8787 25.1391 28.8665 25.0992 28.8547C25.0483 28.833 24.9955 28.8163 24.9414 28.8047C24.6075 28.7656 24.2699 28.8359 23.9793 29.005C23.8656 29.0763 23.7444 29.135 23.6179 29.1799C23.3057 29.2787 22.9992 29.3839 22.7307 29.58C22.6673 29.6267 22.5863 29.6789 22.5144 29.677C22.3301 29.6729 22.1787 29.7158 22.1041 29.8941C22.0405 30.0514 21.9894 30.2135 21.9512 30.3789C21.9415 30.4203 21.9867 30.4833 22.0202 30.5247C22.1586 30.694 22.3559 30.7197 22.5446 30.6761C22.6826 30.6444 22.7392 30.6858 22.7571 30.7977C22.7789 30.9506 22.7925 31.1046 22.7978 31.259C22.8056 31.4003 22.7366 31.4727 22.5912 31.4917C22.482 31.5062 22.3757 31.5375 22.2761 31.5846C22.1532 31.639 22.0389 31.7108 21.9367 31.7979C21.9057 31.826 21.8593 31.8442 21.8126 31.8626C21.6961 31.9084 21.5775 31.955 21.6909 32.157C21.6597 32.1718 21.6238 32.1816 21.5882 32.1913C21.4847 32.2194 21.3837 32.2469 21.409 32.3953C21.4407 32.5799 21.3329 32.637 21.1994 32.659C21.004 32.6911 20.9924 32.7925 21.0413 32.9521C21.0917 33.1164 21.1391 33.2817 21.1865 33.447C21.2287 33.5944 21.2709 33.7418 21.3154 33.8886C21.3218 33.91 21.3458 33.9263 21.37 33.9425C21.3811 33.95 21.3921 33.9574 21.4015 33.9654C21.4105 33.9521 21.422 33.939 21.4335 33.9258C21.4582 33.8976 21.4828 33.8694 21.4828 33.8401C21.4877 33.708 21.4885 33.5757 21.4893 33.4435C21.4901 33.3212 21.4908 33.1989 21.4948 33.0767C21.496 33.0403 21.5155 33.0047 21.5349 32.969C21.544 32.9524 21.5531 32.9357 21.5604 32.9189C21.6086 32.9495 21.6549 32.9829 21.6991 33.0189C21.7414 33.0576 21.7823 33.098 21.8231 33.1383C21.896 33.2103 21.9688 33.2822 22.0493 33.3441C22.1321 33.406 22.1694 33.4549 22.1321 33.5582C22.0418 33.8069 22.0665 33.8494 22.3339 33.8897C22.4321 33.9003 22.5314 33.8985 22.6292 33.8845C22.7254 33.8756 22.8213 33.864 22.9171 33.8524C23.0585 33.8354 23.1999 33.8183 23.3419 33.8099C23.3867 33.807 23.4323 33.8304 23.4789 33.8542C23.5051 33.8677 23.5317 33.8813 23.5586 33.8904C23.5824 33.8987 23.6083 33.9103 23.6345 33.922C23.7015 33.952 23.7704 33.9827 23.8103 33.9613C23.9535 33.8852 24.1038 33.7842 24.1918 33.6533C24.275 33.5294 24.3444 33.5183 24.4764 33.5261C24.6323 33.535 24.7934 33.503 24.9478 33.4686C25.02 33.4528 25.0889 33.4211 25.1577 33.3895C25.1908 33.3742 25.2239 33.359 25.2573 33.3456C25.2927 33.3312 25.3338 33.32 25.3749 33.3087C25.4642 33.2843 25.5533 33.2599 25.5821 33.2042C25.6608 33.0521 25.7686 32.9693 25.9077 32.8947C25.981 32.8487 26.0412 32.7844 26.0822 32.7082C26.1285 32.628 26.1285 32.5434 26.0166 32.496C25.7928 32.4028 25.7809 32.3562 25.9525 32.179C25.997 32.1333 26.0591 32.1035 26.1206 32.0739C26.1414 32.0638 26.1622 32.0538 26.1822 32.0433C26.2484 32.0082 26.3154 31.9741 26.3824 31.94C26.467 31.8969 26.5517 31.8539 26.6349 31.8087C26.6793 31.7846 26.7223 31.7575 26.7652 31.7303C26.8373 31.6847 26.9093 31.6392 26.9874 31.6088C27.0136 31.5986 27.04 31.5887 27.0663 31.5789C27.2606 31.5064 27.4518 31.435 27.5468 31.2176C27.5557 31.1965 27.5767 31.1815 27.5978 31.1665C27.6084 31.1589 27.619 31.1514 27.6281 31.143C27.6654 31.109 27.7034 31.0754 27.7413 31.0419C27.8351 30.9589 27.9289 30.8759 28.0144 30.7854C28.1017 30.6929 28.1584 30.6966 28.2057 30.8085C28.2327 30.8723 28.2549 30.9381 28.2804 31.0137C28.2926 31.05 28.3056 31.0884 28.3202 31.13C28.4194 30.8223 28.5597 30.5777 28.8207 30.418C28.8353 30.4067 28.8472 30.3923 28.8557 30.3759C28.8642 30.3595 28.8691 30.3414 28.8699 30.3229C28.8724 30.1747 28.9712 30.0943 29.069 30.0149C29.076 30.0092 29.083 30.0035 29.09 29.9977C29.1127 29.9791 29.1373 29.9605 29.1622 29.9416C29.2511 29.8744 29.3443 29.8039 29.3734 29.7151C29.4463 29.4985 29.4923 29.2734 29.5383 29.0478C29.5533 28.9745 29.5682 28.9013 29.5841 28.8282C29.5902 28.801 29.5902 28.773 29.5901 28.7451C29.5901 28.7167 29.59 28.6886 29.5964 28.6615C29.6175 28.5728 29.6404 28.4843 29.6634 28.3958C29.7453 28.0797 29.8274 27.7626 29.8254 27.4308C29.8235 27.0724 29.8157 26.7137 29.7974 26.356C29.7948 26.3083 29.7225 26.2531 29.6703 26.2214C29.5513 26.1487 29.4655 26.0726 29.4894 25.9107C29.4981 25.8512 29.4827 25.7882 29.4695 25.734C29.4641 25.7121 29.4591 25.6917 29.4562 25.6735H29.1545C29.1619 25.6447 29.169 25.6157 29.1761 25.5867C29.1912 25.5255 29.2062 25.4642 29.2242 25.4039C29.2419 25.3451 29.2667 25.2854 29.2915 25.2258C29.3447 25.0981 29.3977 24.9707 29.3801 24.8535C29.3557 24.6911 29.2764 24.5371 29.197 24.3829C29.1613 24.3136 29.1256 24.2442 29.0948 24.174C29.0847 24.1509 29.0732 24.1277 29.0617 24.1045C29.0302 24.0413 28.9986 23.9776 28.9945 23.9129C28.9725 23.556 28.9617 23.1984 28.9572 22.8407C28.9556 22.7303 28.9615 22.6197 28.9673 22.509C28.9725 22.4107 28.9777 22.3124 28.9777 22.2142C28.9777 22.1889 28.9781 22.163 28.9785 22.1369C28.9804 22.0128 28.9825 21.8835 28.9341 21.7808C28.8647 21.6331 28.886 21.55 29.002 21.4612C29.1179 21.3725 29.1672 21.2628 29.1851 21.1136C29.201 20.9809 29.2356 20.8506 29.2702 20.7202C29.2858 20.6616 29.3013 20.603 29.3152 20.5442C29.3227 20.5217 29.3247 20.4978 29.3208 20.4744C29.3008 20.4072 29.2794 20.3401 29.258 20.2732C29.2402 20.2176 29.2225 20.162 29.2056 20.1063C29.1094 19.7927 29.2045 19.4593 29.4349 19.3799C29.5558 19.3381 29.583 19.2777 29.5886 19.1658C29.5947 19.0469 29.6048 18.9282 29.6149 18.8096C29.6252 18.6882 29.6355 18.5669 29.6415 18.4453C29.6432 18.4088 29.6277 18.3717 29.6121 18.3344C29.6036 18.3141 29.5951 18.2937 29.5893 18.2734C29.5819 18.2469 29.5733 18.2205 29.5647 18.1941C29.5432 18.1277 29.5216 18.0613 29.5181 17.994C29.5164 17.9625 29.5149 17.931 29.5134 17.8995C29.5071 17.7705 29.5009 17.6423 29.4841 17.5168C28.9539 17.1476 28.0375 16.6978 26.4954 16.3811H25.9677C26.1 16.5236 26.1939 16.6973 26.2407 16.886C26.2581 16.9497 26.3274 16.9993 26.405 17.0548C26.4424 17.0815 26.4818 17.1097 26.5182 17.1415C26.5008 17.1495 26.4825 17.1602 26.4647 17.1706C26.4259 17.1932 26.3892 17.2146 26.369 17.2042C26.2456 17.1408 26.1165 17.0729 26.0196 16.9763C25.8834 16.8425 25.7577 16.6968 25.632 16.551C25.5826 16.4937 25.5331 16.4363 25.4829 16.3796H22.4249C22.3466 16.4078 22.2682 16.4358 22.1898 16.4638C21.9705 16.5422 21.7512 16.6205 21.5339 16.7029C21.4892 16.72 21.4477 16.7463 21.4064 16.7726C21.3599 16.8022 21.3135 16.8316 21.2628 16.8476L21.246 16.8529C21.0475 16.9158 20.8457 16.9796 20.6404 17.005C20.5086 17.0214 20.3749 17.0201 20.241 17.0189C20.146 17.018 20.0509 17.0171 19.9564 17.0225C19.9285 17.0241 19.9031 17.0493 19.8769 17.0754C19.8582 17.094 19.8391 17.113 19.8184 17.124L19.817 17.1247C19.7675 17.1512 19.6965 17.1891 19.6569 17.1717C19.604 17.1486 19.5324 17.071 19.5383 17.0263C19.5533 16.9161 20.0562 16.566 20.5534 16.2199C20.6601 16.1456 20.7666 16.0715 20.8679 16C16.9764 16.1264 15.1339 16.9507 14.302 17.5457ZM24.071 18.2174C24.1395 18.2256 24.2086 18.2294 24.2776 18.2286L24.024 17.9549L24.0486 17.9112L24.9149 18.2096C24.9205 18.2118 24.9299 18.2156 24.9299 18.2204C24.9475 18.2743 24.9661 18.328 24.9846 18.3818C25.0317 18.5179 25.0788 18.654 25.1104 18.7936C25.1245 18.8548 25.1117 18.9223 25.0977 18.9965C25.0909 19.0321 25.0839 19.0693 25.0794 19.108C24.771 19.2859 24.5107 19.2486 24.269 18.9652C24.1769 18.8566 24.0848 18.8533 23.9815 18.9428C23.9786 18.9452 23.9754 18.9477 23.972 18.9503C23.961 18.9587 23.9488 18.9681 23.9442 18.9801C23.8453 19.2457 23.6124 19.3144 23.3852 19.3816C23.3511 19.3916 23.3171 19.4017 23.2837 19.4123C23.1774 19.4426 23.0634 19.4311 22.9652 19.3802C22.7908 19.2756 22.6295 19.1504 22.4849 19.0073C22.3697 18.8947 22.2671 18.873 22.1414 18.9607C21.9729 19.0789 21.8121 19.2046 21.7864 19.4347C21.7686 19.5665 21.8031 19.7 21.8826 19.8067C21.9621 19.9133 22.0801 19.9846 22.2115 20.0053C22.2397 20.0143 22.2667 20.0268 22.2917 20.0426C22.125 20.2544 21.9729 20.2731 21.7323 20.1082C21.7199 20.0997 21.7079 20.0912 21.6961 20.0829C21.5883 20.0067 21.5018 19.9455 21.3336 20.0508C21.1032 20.1951 20.9294 20.056 20.9234 19.7849C20.9218 19.712 20.9176 19.6391 20.9133 19.5662C20.9079 19.473 20.9025 19.3797 20.9025 19.2866C20.9025 19.2203 20.9191 19.155 20.951 19.0968C20.9803 19.0459 21.0161 18.9989 21.0519 18.9518C21.0841 18.9095 21.1163 18.8671 21.1438 18.822C21.4276 18.3569 21.8505 18.0824 22.36 17.9247C22.3716 17.9211 22.386 17.9262 22.4065 17.9334C22.4182 17.9375 22.4318 17.9424 22.448 17.9467L22.2376 18.1331C22.2393 18.1436 22.2409 18.1539 22.2425 18.1642C22.2441 18.1746 22.2457 18.185 22.2473 18.1954C22.2974 18.1975 22.3476 18.2014 22.3978 18.2053C22.5085 18.2138 22.6194 18.2224 22.7284 18.2118L22.7429 18.2104C23.1856 18.168 23.6283 18.1256 24.071 18.2174Z"/>
    </symbol>
    <symbol viewBox="0 0 101 67" id="bio-big">
        <path d="M34.4703 25.9518C34.1959 26.1153 33.8945 26.193 33.5973 26.193C33.0061 26.193 32.4307 25.8857 32.1092 25.3327C31.626 24.502 31.9002 23.4328 32.7211 22.9441L39.7594 18.755C40.5797 18.2663 41.6376 18.5434 42.1205 19.3741C42.6037 20.2048 42.3296 21.274 41.5086 21.7628L34.4703 25.9518Z" fill="#FF7F22"/>
        <path fill-rule="evenodd" clip-rule="evenodd" d="M100.974 40.0405L99.5551 31.8483C99.4238 31.09 98.8165 30.5082 98.0608 30.417L90.6529 29.5218L88.0793 24.7105C88.9114 23.2705 89.1852 21.5562 88.8295 19.9122C88.4266 18.0504 87.2533 16.448 85.6096 15.5159L78.4656 11.4632C77.6352 10.9919 76.5837 11.291 76.1176 12.1315C75.6519 12.972 75.9476 14.0354 76.7785 14.5067L83.9226 18.5594C85.5662 19.492 86.0445 21.6641 84.9299 23.2149C84.1096 24.3559 82.6209 24.8179 81.3085 24.3376L60.9659 16.8886C62.3984 15.9386 63.5821 14.5705 64.3131 12.8657C65.0067 11.248 65.2236 9.50395 64.9612 7.80317L70.6643 11.0384C70.9313 11.1898 71.2208 11.2617 71.5064 11.2617C72.1101 11.2617 72.6961 10.9405 73.0125 10.37C73.4782 9.52954 73.1824 8.46617 72.3518 7.99486L61.1503 1.64026C60.6644 1.30108 60.1421 1.00749 59.5884 0.764625C57.3597 -0.213131 54.888 -0.25454 52.6285 0.648309C50.3691 1.55116 48.5925 3.28962 47.6257 5.54407C47.3941 6.08401 47.2182 6.63442 47.0949 7.18879L14.5899 21.6506C9.87337 21.7702 5.46205 24.151 2.72953 28.0711C2.18059 28.8585 2.36687 29.947 3.14555 30.5023C3.92446 31.0579 5.00027 30.8692 5.54898 30.0817C7.70175 26.9931 11.2072 25.1457 14.9314 25.1353L14.964 25.1355L14.9875 25.1353C21.325 25.1485 26.4766 30.3681 26.4766 36.782C26.4766 43.2041 21.3117 48.4288 14.9631 48.4288C8.6145 48.4288 3.44957 43.2041 3.44957 36.782C3.44957 36.4754 3.46429 36.1483 3.49511 35.7826C3.5756 34.8226 2.87096 33.9783 1.92187 33.8969C0.975078 33.8139 0.138212 34.5278 0.0577224 35.4881C0.0188572 35.9527 0 36.3759 0 36.782C0 42.3673 3.00596 47.2556 7.4674 49.8786L15.3497 67H19.1547L12.082 51.637C13.0145 51.8218 13.9779 51.9188 14.9631 51.9188C19.1936 51.9188 23.0197 50.1335 25.7437 47.2689L34.7048 67H38.5017L28.226 44.374L55.548 18.6157L80.1345 27.6184C80.8617 27.8847 81.615 28.0127 82.3618 28.0127C83.4567 28.0127 84.5368 27.737 85.4988 27.2183L87.6194 31.1823L84.3082 37.945C83.9704 38.6349 84.1197 39.4671 84.6755 39.9933L90.6787 45.6758C91.0112 45.9908 91.4344 46.1467 91.8566 46.1467C92.3175 46.1467 92.7769 45.9613 93.1166 45.5942C93.7674 44.8907 93.7313 43.7864 93.0354 43.128L87.9685 38.3316L90.5667 33.0252L96.379 33.7278L97.5764 40.6426C97.7411 41.5919 98.6355 42.227 99.5731 42.0602C100.511 41.8939 101.138 40.9894 100.974 40.0405ZM55.9771 3.49457C58.2285 3.49457 60.3457 4.86897 61.2198 7.10713C62.7732 11.0866 59.596 15.3223 55.3889 14.8852C51.9163 14.383 50.0742 11.4855 50.3516 8.64042C50.3559 8.60785 50.3594 8.57528 50.3619 8.54248C50.6926 5.66295 53.1117 3.49457 55.9771 3.49457ZM20.6326 22.7743L47.0563 11.0179C47.5892 13.679 49.2735 16.0644 51.799 17.3804L29.8745 38.0506C29.9089 37.6323 29.9264 37.2094 29.9264 36.7823C29.9264 30.4646 26.0804 25.0387 20.6326 22.7743Z"/>
        <path d="M29.1353 67L23.9547 55.593C23.5571 54.7176 22.5328 54.3331 21.6674 54.736C20.8018 55.1382 20.4226 56.1741 20.8199 57.0497L25.339 67H29.1353Z"/>
        <path fill-rule="evenodd" clip-rule="evenodd" d="M22.5877 36.7823C22.5877 32.5293 19.1674 29.0693 14.963 29.0693C10.7587 29.0693 7.33832 32.5295 7.33832 36.7823C7.33832 41.035 10.7587 44.4952 14.963 44.4952C19.1674 44.4952 22.5877 41.0353 22.5877 36.7823ZM10.7877 36.7823C10.7877 34.4534 12.6608 32.5588 14.9628 32.5588C17.2648 32.5588 19.1379 34.4536 19.1379 36.7823C19.1379 39.1109 17.2648 41.0057 14.9628 41.0057C12.6608 41.0057 10.7877 39.1112 10.7877 36.7823Z"/>
    </symbol>
    <symbol viewBox="0 0 80 80" id="cpu-big">
        <path d="M68 7.58V0H65.3333V6.77333C64.8917 6.70583 64.4467 6.67083 64 6.66667H61.3333V0H58.6667V6.66667H54.6667V0H52V6.66667H48V0H45.3333V6.66667H41.3333V0H38.6667V6.66667H34.6667V0H32V6.66667H28V0H25.3333V6.66667H21.3333V0H18.6667V6.66667H16C15.5533 6.67083 15.1083 6.70583 14.6667 6.77333V0H12V7.58C10.0646 8.50458 8.50458 10.0646 7.58 12H0V14.6667H6.77333C6.70583 15.1083 6.67083 15.5533 6.66667 16V18.6667H0V21.3333H6.66667V25.3333H0V28H6.66667V32H0V34.6667H6.66667V38.6667H0V41.3333H6.66667V45.3333H0V48H6.66667V52H0V54.6667H6.66667V58.6667H0V61.3333H6.66667V64C6.67083 64.4467 6.70583 64.8917 6.77333 65.3333H0V68H7.58C8.50458 69.9354 10.0646 71.4954 12 72.42V80H14.6667V73.2267C15.1083 73.2942 15.5533 73.3292 16 73.3333H18.6667V80H21.3333V73.3333H25.3333V80H28V73.3333H32V80H34.6667V73.3333H38.6667V80H41.3333V73.3333H45.3333V80H48V73.3333H52V80H54.6667V73.3333H58.6667V80H61.3333V73.3333H64C64.4467 73.3292 64.8917 73.2942 65.3333 73.2267V80H68V72.42C69.9354 71.4954 71.4954 69.9354 72.42 68H80V65.3333H73.2267C73.2942 64.8917 73.3292 64.4467 73.3333 64V61.3333H80V58.6667H73.3333V54.6667H80V52H73.3333V48H80V45.3333H73.3333V41.3333H80V38.6667H73.3333V34.6667H80V32H73.3333V28H80V25.3333H73.3333V21.3333H80V18.6667H73.3333V16C73.3292 15.5533 73.2942 15.1083 73.2267 14.6667H80V12H72.42C71.4954 10.0646 69.9354 8.50458 68 7.58ZM70.6667 64C70.6621 67.68 67.68 70.6621 64 70.6667H16C12.32 70.6621 9.33792 67.68 9.33333 64V16C9.33792 12.32 12.32 9.33792 16 9.33333H64C67.68 9.33792 70.6621 12.32 70.6667 16V64Z"/>
        <path d="M62.6667 13.3333H17.3333C15.1246 13.3333 13.3333 15.1246 13.3333 17.3333V62.6667C13.3333 64.8754 15.1246 66.6667 17.3333 66.6667H62.6667C64.8754 66.6667 66.6667 64.8754 66.6667 62.6667V17.3333C66.6667 15.1246 64.8754 13.3333 62.6667 13.3333ZM64 62.6667C64 63.4033 63.4033 64 62.6667 64H17.3333C16.5967 64 16 63.4033 16 62.6667V17.3333C16 16.5967 16.5967 16 17.3333 16H62.6667C63.4033 16 64 16.5967 64 17.3333V62.6667Z"/>
        <path d="M58.6667 18.6667H61.3333V21.3333H58.6667V18.6667Z"/>
        <path d="M18.6667 58.6667H21.3333V61.3333H18.6667V58.6667Z"/>
        <path d="M18.6667 21.3333V25.3333H21.3333V21.3333H25.3333V18.6667H21.3333C19.8604 18.6667 18.6667 19.8604 18.6667 21.3333Z"/>
        <path d="M58.6667 58.6667H54.6667V61.3333H61.3333V54.6667H58.6667V58.6667Z"/>
    </symbol>
    <symbol viewBox="0 0 88 88" id="soul-big" fill="none">
        <path d="M65.7731 36.4271C65.8872 36.1043 65.9841 35.7756 66.0633 35.4425C66.2448 34.4744 66.3997 34.3431 67.3617 34.3626C67.5225 34.3653 67.6777 34.304 67.7934 34.1923C67.8437 34.1318 67.7678 33.8662 67.6745 33.8016C67.4109 33.619 67.1217 33.4098 66.8181 33.3596C65.9751 33.2211 65.9197 33.1216 66.2356 32.3586C66.3658 32.0448 66.3381 31.6602 66.3587 31.3074C66.4099 30.4685 66.8714 29.8039 67.3432 29.1763C67.6509 28.766 68.2826 29.0204 68.458 29.5619C68.5359 29.8039 68.619 30.0439 68.7 30.2849L68.8385 30.249C68.7011 29.6767 68.5636 29.1045 68.4149 28.4871C68.6098 28.4676 68.7164 28.4255 68.7985 28.4543C69.1821 28.5876 69.4467 28.4543 69.6805 28.1466C69.8466 27.9251 70.0128 27.7897 70.2671 28.1363C71.2677 29.4732 71.9057 31.046 72.1193 32.7022C72.2205 33.4091 72.3664 34.109 72.5562 34.7974C72.8475 35.9133 72.8413 37.0373 72.7746 38.2187C72.4014 36.5642 71.8153 34.9651 71.0312 33.4611L70.9081 33.5062C71.0527 33.8775 71.1901 34.2508 71.3409 34.619C71.9685 36.142 71.8875 37.6352 71.1624 39.1059C71.0886 39.2566 71.066 39.432 70.9994 39.5869C70.8579 39.9089 70.8691 40.2884 71.1983 40.3571C71.4106 40.4012 71.7522 40.1212 71.9398 39.9038C72.1275 39.6863 72.1665 39.3756 72.2947 39.1161C72.381 38.9632 72.4795 38.8175 72.589 38.6803L72.7746 38.7336C72.7275 39.1172 72.7049 39.5058 72.6259 39.8833C72.5234 40.3663 72.3921 40.8442 72.2465 41.3191C72.1008 41.7939 71.8363 41.88 71.5019 41.5621C71.1676 41.2442 70.7656 40.9857 70.6815 40.434C70.6384 40.1561 70.3143 39.9212 70.1174 39.6669C69.9348 39.9335 69.7389 40.193 69.5769 40.4709C69.5234 40.5799 69.5153 40.7057 69.5543 40.8206C69.8415 41.5652 69.9133 42.3969 70.5892 42.9805C71.0763 43.402 70.8753 43.9374 70.2487 44.1353C70.1749 44.1645 70.1085 44.2095 70.0539 44.2671C69.9994 44.3247 69.958 44.3934 69.9328 44.4686C69.7031 45.5178 68.8303 45.729 67.9955 45.9464C67.4662 46.0689 66.9262 46.1396 66.3833 46.1577C66.2448 46.1659 65.9905 46.0018 65.9659 45.8808C65.8572 45.3819 65.7937 44.8743 65.7761 44.364C65.7495 43.2964 65.7679 42.2287 65.7679 41.157C66.4858 41.0955 66.6591 40.8873 66.4858 40.1314C66.3525 39.5581 66.1669 38.9972 65.9638 38.2936L65.2695 39.7756C65.0305 39.4843 64.7998 39.2956 64.69 39.0577C64.3824 38.3921 64.0747 37.7183 63.887 37.0168C63.7773 36.6065 63.8686 36.1399 63.9229 35.704C63.9352 35.6015 64.1506 35.46 64.287 35.4415C64.7659 35.3738 65.2746 35.7256 65.4644 36.2035C65.5012 36.2758 65.5448 36.3445 65.5946 36.4086L65.7731 36.4271ZM70.2302 32.6048L70.3922 32.4878C70.1064 32.0906 69.8207 31.694 69.5349 31.2982L69.3728 31.4151C69.6572 31.811 69.943 32.2075 70.2302 32.6048Z" fill="#FF7F22"/>
        <path d="M62.6709 32.1905C62.754 31.4726 62.7786 30.9177 62.8924 30.3875C62.9629 30.0915 63.1105 29.8194 63.3201 29.5989C63.9354 28.9517 64.4482 28.2656 64.7559 27.398C65.0451 26.5652 65.6892 25.996 66.646 26.0165C66.9127 26.0165 67.2614 26.1724 67.4101 26.3755C67.5055 26.5027 67.3732 26.8985 67.2306 27.0934C66.7609 27.721 66.5548 28.4451 66.2707 29.1568C65.6963 30.5926 65.7907 32.131 65.3918 33.5883C65.3036 33.9104 65.0441 34.415 64.8318 34.4314C64.2031 34.4806 63.4309 34.5585 63.1098 33.7976C62.8719 33.2396 62.7837 32.6243 62.6709 32.1905Z" fill="#FF7F22"/>
        <path d="M62.0984 60.8856C62.039 61.2507 62.0482 61.5092 61.9518 61.7184C61.6886 62.3261 61.3854 62.9158 61.0441 63.4834C60.8247 63.8321 60.4534 64.0813 60.1878 64.4064C59.7976 64.8724 59.4339 65.3599 59.0986 65.8668C58.7243 66.4504 58.4484 67.0975 58.0536 67.6677C57.7767 68.0646 57.39 68.3938 57.0177 68.7128C56.4692 69.194 55.8962 69.6465 55.3009 70.0686C55.0086 70.2737 54.6117 70.3189 54.2959 70.4952C54.0343 70.6419 53.7 70.8306 53.6108 71.0778C53.3472 71.809 52.6252 71.728 52.1206 72.0193C52.1124 72.0244 51.8735 71.7465 51.9053 71.687C52.1596 71.1782 52.4492 70.6878 52.7719 70.2194C54.0518 68.4523 55.7963 67.1488 57.3511 65.6535C58.2433 64.7961 59.0586 63.8577 59.915 62.9614C60.5232 62.3235 61.1395 61.6938 61.7559 61.0641C61.7979 61.021 61.8646 61.0036 62.0984 60.8856Z" fill="#FF7F22"/>
        <path d="M20.4369 31.7408C20.6297 31.7562 20.7384 31.7316 20.7968 31.7757C21.3024 32.1552 21.8173 32.5264 22.2911 32.9438C22.4788 33.11 22.3937 33.2997 22.1321 33.4074C21.3322 33.7397 20.5435 34.1007 19.7436 34.433C19.2308 34.6473 18.5078 34.195 18.3016 33.55C18.115 32.9674 18.4042 32.5172 19.0298 32.3316C19.3539 32.2352 19.6554 32.0629 19.9682 31.9296C20.1528 31.8506 20.3394 31.7798 20.4369 31.7408Z" fill="#FF7F22"/>
        <path d="M59.2441 70.6388C58.6923 71.4059 58.1402 72.1731 57.5878 72.9402C57.1673 73.5227 56.7796 74.1329 56.312 74.6745C55.9041 75.1293 55.4531 75.5435 54.9654 75.9113C54.7449 76.0826 54.4946 76.0139 54.5193 75.6354C54.5346 75.3985 54.5326 75.1606 54.5572 74.9247C54.6105 74.4119 54.6146 73.9545 55.2413 73.6427C55.8484 73.3422 56.2925 72.7197 56.8299 72.2695C57.4883 71.7157 58.1631 71.1854 58.8441 70.6522C58.9404 70.5962 59.0439 70.5537 59.1518 70.526L59.2441 70.6388Z" fill="#FF7F22"/>
        <path d="M59.4452 68.0667C59.1375 68.5057 58.9139 68.8677 58.6534 69.2061C58.3006 69.6635 57.9355 70.1107 57.5479 70.5394C57.474 70.6224 57.3007 70.6173 57.1735 70.6532C57.1202 70.4543 56.9612 70.1999 57.032 70.0666C57.2433 69.6666 57.4925 69.2574 57.8237 68.959C58.2053 68.6154 58.6883 68.3846 59.1314 68.1108C59.1796 68.0841 59.2534 68.0944 59.4452 68.0667Z" fill="#FF7F22"/>
        <path d="M20.6426 37.4749L20.8364 36.8708C21.0492 36.9358 21.2569 37.0163 21.4579 37.1118C21.6916 37.2472 21.9123 37.4037 22.1174 37.5795C22.2097 37.6574 22.3225 37.803 22.305 37.8974C22.2876 37.9917 22.1338 38.083 22.0199 38.1292C21.8627 38.1889 21.6982 38.2271 21.5307 38.243C20.8138 38.3189 20.6846 38.1999 20.6426 37.4749Z" fill="#FF7F22"/>
        <path d="M25.0024 36.8584C25.1583 36.32 25.3101 35.801 25.4588 35.2862C26.0178 35.3703 26.5059 35.799 26.4782 36.1477C26.4382 36.6799 26.0065 36.9004 25.0024 36.8584Z" fill="#FF7F22"/>
        <path d="M24.0796 37.201C24.4191 37.2574 24.6621 37.2605 24.8713 37.3446C24.9416 37.3786 25.0036 37.4276 25.0529 37.4882C25.1022 37.5489 25.1375 37.6195 25.1564 37.6953C25.1708 37.7876 25.0036 37.9938 24.9062 38.003C24.6672 38.0235 24.3534 38.0358 24.2006 37.9004C24.0704 37.7774 24.1175 37.4564 24.0796 37.201Z" fill="#FF7F22"/>
        <path d="M23.0454 35.914C23.1336 35.5612 23.1644 35.2022 23.6074 35.1653C23.6382 35.1653 23.7459 35.3919 23.71 35.473C23.6084 35.7365 23.6136 36.196 23.0454 35.914Z" fill="#FF7F22"/>
        <path d="M26.7114 50.5089L27.3893 50.8586C27.3309 50.9427 27.2868 51.0873 27.2109 51.0996C26.8704 51.1591 26.6724 51.0011 26.7114 50.5089Z" fill="#FF7F22"/>
        <path d="M41.5852 29.9193C41.416 29.6978 41.2694 29.5512 41.2889 29.5235C41.4669 29.2813 41.6626 29.0527 41.8745 28.8394C41.9692 28.8949 42.0553 28.964 42.1298 29.0445C41.9862 29.304 41.8222 29.5553 41.5852 29.9193Z" fill="#FF7F22"/>
        <path fill-rule="evenodd" clip-rule="evenodd" d="M17.3303 26.2509C17.2542 26.3965 17.1877 26.5472 17.1312 26.7021C17.0373 26.9959 17.0119 27.311 16.9865 27.6267C16.9733 27.7904 16.9601 27.9543 16.9373 28.1153C16.8789 28.5379 17.1845 29.1235 17.6378 29.184C17.8439 29.2117 18.1578 28.9266 18.3167 28.7071C18.7475 28.1143 19.4264 27.901 20.0274 27.8241C20.6873 27.7392 21.3716 27.8213 22.0515 27.9028C22.2423 27.9257 22.4327 27.9486 22.6221 27.9677C23.2897 28.0364 23.8938 28.6804 24.0989 29.3696C24.1522 29.5501 24.3912 29.706 24.5779 29.8086C24.6868 29.8713 24.8109 29.9143 24.9339 29.9569C25.1107 30.0183 25.2854 30.0789 25.4106 30.1962C26.4731 31.188 26.9551 32.5048 27.3469 33.8545C27.4886 34.3061 27.5477 34.7797 27.5213 35.2523C27.433 36.2713 27.3023 37.2865 27.1716 38.3019C27.1336 38.5967 27.0956 38.8915 27.0587 39.1864C27.0358 39.3689 27.0157 39.5526 26.9956 39.7366C26.9365 40.2763 26.8772 40.8185 26.7449 41.3401C26.6512 41.7085 26.5026 42.0624 26.3538 42.4168C26.2337 42.7028 26.1135 42.9891 26.0219 43.2836C25.9249 43.5971 25.8629 43.9216 25.8008 44.2463C25.7473 44.5261 25.6937 44.806 25.6178 45.0794C25.424 45.7798 25.6763 46.5224 26.3306 46.7685C26.9627 47.0087 27.6361 47.1214 28.312 47.1003C28.9878 47.0792 29.6529 46.9246 30.2688 46.6454C30.7961 46.3939 31.381 46.2877 31.963 46.3378C32.0712 46.3472 32.1779 46.3827 32.2843 46.418C32.4077 46.459 32.5308 46.4998 32.6553 46.4998C33.8869 46.5209 35.1027 46.7804 36.2356 47.2638C36.5135 47.3777 37.0212 47.2731 37.2611 47.07C37.5011 46.8669 37.6857 46.3695 37.6037 46.0855C37.4726 45.6322 37.6076 45.2922 37.7485 44.9371C37.7741 44.8728 37.7998 44.808 37.8242 44.742C37.8489 44.7476 37.871 44.7506 37.8899 44.7532C37.9226 44.7576 37.9453 44.7607 37.9544 44.7738C38.6528 45.7542 39.1759 46.7685 38.858 48.0474C38.8082 48.2871 38.7097 48.5141 38.5685 48.7141C38.4274 48.9142 38.2466 49.0831 38.0375 49.2104C37.5719 49.4914 37.0827 49.7847 36.5699 49.9211C36.1334 50.0358 35.6674 50.0438 35.2049 50.0518C35.0883 50.0538 34.9718 50.0558 34.8562 50.0596C34.7909 50.0488 34.7295 50.0218 34.6773 49.9811C34.6252 49.9405 34.5841 49.8874 34.5577 49.8268C34.5341 49.7406 34.6439 49.5755 34.7393 49.5088C34.942 49.3532 35.1676 49.2297 35.4079 49.1427L35.4275 49.1366C35.7231 49.0439 35.982 48.9627 35.8756 48.5684C35.7889 48.2464 35.5577 48.2723 35.3312 48.2977C35.2872 48.3027 35.2433 48.3076 35.2008 48.3099C35.027 48.3193 34.8532 48.3282 34.6794 48.3372C34.0724 48.3685 33.4653 48.3998 32.8594 48.4484C32.5402 48.4918 32.2237 48.5537 31.9117 48.634C31.939 48.7307 31.9733 48.8253 32.0143 48.9171C32.4153 49.5652 32.3876 49.594 31.8 50.0585C31.7066 50.1367 31.6302 50.2332 31.5755 50.342C31.5208 50.4509 31.489 50.5697 31.482 50.6913C31.4943 50.9641 31.5565 51.2341 31.619 51.5048C31.6561 51.6656 31.6932 51.8266 31.72 51.9887C31.8071 52.5199 31.5477 52.7271 31.0462 52.6512C30.7752 52.6127 30.4994 52.6735 30.2698 52.8225C30.0103 53.0142 29.9652 53.3404 30.197 53.6429C30.2391 53.7162 30.2646 53.7977 30.2719 53.8819C30.3157 54.0923 30.3568 54.3037 30.3979 54.5151C30.4884 54.9806 30.5789 55.4463 30.6995 55.9033C30.7939 56.2612 31.0339 56.574 31.4728 56.4991C31.8933 56.4284 32.3056 56.2694 32.1825 55.7105C32.0671 55.1543 31.9156 54.6061 31.7292 54.0696C31.5589 53.5978 31.8543 53.3752 32.1528 53.2132C32.5146 53.017 32.6962 53.3306 32.8531 53.6018L32.8573 53.6091C32.8851 53.6569 32.9131 53.7047 32.941 53.7525C33.0575 53.9518 33.1742 54.1514 33.2809 54.3557C33.3295 54.4469 33.3841 54.5377 33.4387 54.6287C33.5879 54.8771 33.7378 55.1267 33.7701 55.3895C33.8388 55.9597 34.1178 56.0264 34.5977 56.0048C35.9996 55.9422 37.4015 55.9094 38.8043 55.8766L38.9369 55.8735C39.1131 55.869 39.2908 55.8798 39.4682 55.8905C39.7349 55.9065 40.0011 55.9226 40.2609 55.8869C40.9322 55.782 41.5977 55.6427 42.2547 55.4695C42.4445 55.423 42.629 55.3547 42.8136 55.2863C42.971 55.228 43.1285 55.1697 43.2895 55.1249C43.8084 54.9813 44.3304 54.848 44.8586 54.7454C44.969 54.7242 45.0933 54.766 45.2155 54.8072C45.2591 54.8218 45.3024 54.8364 45.3447 54.848C45.7272 54.9516 46.1098 55.0562 46.4893 55.171C46.5466 55.1883 46.6073 55.2033 46.6685 55.2183C46.8501 55.2629 47.0359 55.3085 47.1518 55.4213C47.7117 55.9628 48.2245 56.5402 48.7373 57.1237C48.7753 57.1859 48.7983 57.2561 48.8043 57.3288C48.8104 57.4015 48.7994 57.4745 48.7722 57.5422C48.7209 57.6447 48.526 57.7698 48.4235 57.7473C48.0582 57.6657 47.7048 57.5578 47.3507 57.4497C47.2415 57.4164 47.1323 57.383 47.0226 57.3504C46.8827 57.2909 46.7374 57.2448 46.5887 57.2129C45.6704 57.1054 44.7419 57.2987 43.9428 57.7637C43.6301 57.9599 43.2968 58.1212 42.949 58.2447C42.0906 58.5164 41.2475 58.8057 40.5091 59.3451C40.3348 59.4733 40.1122 59.6169 39.9143 59.6118C39.4077 59.6005 38.9913 59.7184 38.7862 60.2086C38.6112 60.6413 38.4706 61.0871 38.3657 61.5419C38.339 61.6557 38.4631 61.8291 38.5554 61.9429C38.9359 62.4085 39.4784 62.4793 39.9974 62.3593C40.3768 62.2721 40.5327 62.3859 40.5819 62.6936C40.6418 63.1142 40.6791 63.5377 40.6937 63.9622C40.7153 64.3509 40.5255 64.5499 40.1256 64.6022C39.8252 64.642 39.5329 64.7282 39.259 64.8576C38.9212 65.0071 38.6069 65.2047 38.3257 65.4442C38.2406 65.5214 38.113 65.5716 37.9845 65.6221C37.6641 65.748 37.338 65.8762 37.6498 66.4318C37.5641 66.4725 37.4653 66.4993 37.3675 66.5259C37.0827 66.6033 36.805 66.6788 36.8745 67.0872C36.9617 67.5948 36.6653 67.7517 36.2981 67.8122C35.7607 67.9004 35.7289 68.1794 35.8633 68.6183C36.0021 69.07 36.1323 69.5246 36.2626 69.9793C36.3787 70.3846 36.4948 70.79 36.6171 71.1936C36.6347 71.2526 36.7009 71.2972 36.7673 71.3419C36.7977 71.3624 36.8282 71.3829 36.854 71.4048C36.8788 71.3683 36.9104 71.3321 36.942 71.2959C37.0098 71.2183 37.0776 71.1407 37.0776 71.0602C37.0909 70.6969 37.0931 70.3333 37.0954 69.9697C37.0975 69.6333 37.0995 69.297 37.1104 68.9609C37.1139 68.8609 37.1674 68.7629 37.2209 68.6648C37.2459 68.619 37.271 68.5731 37.2909 68.5271C37.4234 68.6111 37.5508 68.7028 37.6724 68.8019C37.7888 68.9083 37.9011 69.0194 38.0134 69.1303C38.2138 69.3283 38.4139 69.526 38.6354 69.6962C38.8631 69.8665 38.9656 70.0008 38.8631 70.2849C38.6149 70.969 38.6826 71.0859 39.4179 71.1966C39.6882 71.2257 39.9611 71.2209 40.2302 71.1823C40.4946 71.1578 40.7583 71.126 41.022 71.0942C41.4108 71.0473 41.7995 71.0004 42.1901 70.9772C42.3133 70.9693 42.4387 71.0335 42.5667 71.0991C42.6389 71.1361 42.7119 71.1735 42.7859 71.1987C42.8514 71.2215 42.9227 71.2534 42.9948 71.2856C43.179 71.3679 43.3683 71.4525 43.4782 71.3936C43.872 71.1843 44.2853 70.9064 44.5273 70.5464C44.756 70.2059 44.9468 70.1752 45.3098 70.1967C45.7385 70.2213 46.1816 70.1331 46.6062 70.0388C46.8049 69.9951 46.9944 69.908 47.1836 69.821C47.2746 69.7791 47.3655 69.7373 47.4574 69.7003C47.5547 69.6609 47.6678 69.6299 47.7809 69.599C48.0265 69.5318 48.2713 69.4648 48.3507 69.3116C48.5671 68.8932 48.8635 68.6655 49.246 68.4604C49.4477 68.3339 49.6131 68.1572 49.726 67.9476C49.8531 67.7271 49.8531 67.4943 49.5455 67.3641C48.9301 67.1077 48.8973 66.9795 49.3691 66.4923C49.4917 66.3667 49.6624 66.2845 49.8315 66.2031C49.8888 66.1755 49.9458 66.1481 50.0008 66.119C50.183 66.0225 50.3672 65.9288 50.5514 65.835C50.7841 65.7166 51.0169 65.5981 51.2459 65.4739C51.3679 65.4078 51.4861 65.333 51.6041 65.2584C51.8024 65.1329 52.0003 65.0078 52.215 64.9242C52.2872 64.8961 52.3598 64.869 52.4322 64.8419C52.9666 64.6425 53.4924 64.4463 53.7534 63.8484C53.778 63.7904 53.8358 63.7491 53.8938 63.7078C53.9228 63.687 53.952 63.6662 53.977 63.6433C54.0798 63.5497 54.1841 63.4574 54.2884 63.3651C54.5463 63.137 54.8043 62.9088 55.0395 62.6598C55.2794 62.4054 55.4353 62.4157 55.5656 62.7234C55.6398 62.8988 55.7008 63.0798 55.771 63.2877C55.8046 63.3873 55.8402 63.4931 55.8804 63.6074C56.1532 62.7613 56.5389 62.0885 57.2568 61.6496C57.2968 61.6183 57.3297 61.5788 57.353 61.5336C57.3764 61.4885 57.3897 61.4388 57.3921 61.3881C57.3988 60.9804 57.6707 60.7594 57.9395 60.5408C57.9588 60.5251 57.9781 60.5095 57.9972 60.4938C58.0598 60.4424 58.1274 60.3913 58.1958 60.3395C58.4405 60.1545 58.6965 59.9608 58.7767 59.7164C58.9772 59.1209 59.1035 58.502 59.2302 57.8813C59.2713 57.68 59.3124 57.4785 59.3561 57.2776C59.3729 57.2027 59.3728 57.1256 59.3727 57.0489C59.3725 56.971 59.3724 56.8935 59.39 56.8191C59.4479 56.5752 59.5109 56.3318 59.574 56.0883C59.7993 55.219 60.0253 54.3472 60.0197 53.4347C60.0145 52.4492 59.993 51.4625 59.9427 50.479C59.9356 50.3477 59.7366 50.196 59.593 50.1088C59.2659 49.9088 59.03 49.6996 59.0956 49.2545C59.1197 49.0909 59.0773 48.9175 59.0408 48.7686C59.0261 48.7083 59.0123 48.6521 59.0043 48.6022H58.1746C58.1951 48.5228 58.2146 48.4431 58.2342 48.3634C58.2756 48.195 58.317 48.0264 58.3664 47.8607C58.4151 47.6991 58.4834 47.5349 58.5516 47.3709C58.6976 47.0197 58.8434 46.6693 58.7951 46.347C58.7279 45.9006 58.5099 45.4771 58.2916 45.053C58.1934 44.8623 58.0952 44.6715 58.0106 44.4784C57.9828 44.4148 57.9511 44.3512 57.9194 44.2874C57.833 44.1135 57.7459 43.9383 57.7347 43.7605C57.6742 42.779 57.6444 41.7955 57.6321 40.812C57.6278 40.5083 57.6439 40.204 57.6599 39.8997C57.6742 39.6294 57.6885 39.3591 57.6885 39.089C57.6883 39.0194 57.6895 38.9483 57.6906 38.8766C57.696 38.5353 57.7016 38.1795 57.5685 37.8973C57.3778 37.4911 57.4362 37.2624 57.7552 37.0183C58.0741 36.7743 58.2095 36.4727 58.2587 36.0625C58.3026 35.6974 58.3977 35.3391 58.4929 34.9806C58.5357 34.8195 58.5785 34.6583 58.6167 34.4965C58.6373 34.4347 58.6426 34.3689 58.632 34.3047C58.5771 34.1197 58.5182 33.9354 58.4593 33.7511C58.4105 33.5983 58.3617 33.4455 58.3152 33.2924C58.0506 32.4299 58.3121 31.5131 58.9459 31.2946C59.2782 31.1798 59.353 31.0136 59.3684 30.7059C59.3852 30.3789 59.4129 30.0526 59.4407 29.7263C59.4691 29.3926 59.4975 29.059 59.514 28.7245C59.5187 28.6243 59.4761 28.5223 59.4332 28.4197C59.4098 28.3638 59.3864 28.3078 59.3705 28.2517C59.35 28.179 59.3264 28.1064 59.3028 28.0338C59.2435 27.8512 59.1841 27.6685 59.1746 27.4836C59.17 27.3968 59.1657 27.3101 59.1615 27.2235C59.1444 26.8689 59.1273 26.5162 59.0812 26.1711C57.6231 25.1557 55.1028 23.9188 50.8622 23.048H49.4111C49.7748 23.4399 50.0332 23.9177 50.1618 24.4366C50.2096 24.6116 50.4001 24.7479 50.6135 24.9006C50.7165 24.9742 50.8247 25.0517 50.9249 25.1391C50.8771 25.1611 50.8268 25.1905 50.7777 25.2191C50.6709 25.2814 50.5701 25.3402 50.5146 25.3114C50.1752 25.1371 49.8203 24.9504 49.5537 24.6848C49.1791 24.3168 48.8336 23.9162 48.4879 23.5153C48.3518 23.3575 48.2158 23.1997 48.0779 23.0439H39.6682C39.4529 23.1214 39.2373 23.1984 39.0217 23.2755C38.4187 23.4909 37.8156 23.7064 37.2181 23.933C37.095 23.9799 36.981 24.0524 36.8673 24.1246C36.7395 24.2059 36.612 24.287 36.4725 24.331L36.4265 24.3455C35.8803 24.5183 35.3254 24.6939 34.7608 24.7638C34.3986 24.8087 34.0308 24.8053 33.6627 24.8019C33.4013 24.7995 33.1397 24.7971 32.8799 24.812C32.8033 24.8162 32.7333 24.8857 32.6612 24.9573C32.6097 25.0084 32.5572 25.0606 32.5004 25.0909L32.4967 25.0929C32.3604 25.1657 32.1651 25.27 32.0564 25.2222C31.9107 25.1586 31.7138 24.9453 31.7302 24.8222C31.7714 24.5191 33.1543 23.5565 34.5217 22.6047C34.8152 22.4004 35.1079 22.1967 35.3865 22C24.6846 22.3475 19.6178 24.6146 17.3303 26.2509ZM44.195 28.0979C44.3836 28.1205 44.5734 28.1307 44.7632 28.1287L44.0658 27.3759L44.1335 27.2559L46.5159 28.0764C46.5313 28.0825 46.5569 28.0928 46.5569 28.1061C46.6054 28.2544 46.6565 28.4021 46.7076 28.5498C46.8371 28.9242 46.9665 29.2985 47.0533 29.6824C47.0921 29.8507 47.057 30.0364 47.0184 30.2403C46.9999 30.3382 46.9805 30.4404 46.9682 30.547C46.12 31.0362 45.4042 30.9336 44.7396 30.1542C44.4863 29.8557 44.233 29.8465 43.9489 30.0926C43.941 30.0993 43.9321 30.1061 43.9229 30.1132C43.8926 30.1364 43.8589 30.1622 43.8463 30.1952C43.5744 30.9256 42.934 31.1147 42.309 31.2993C42.2153 31.327 42.1218 31.3545 42.0301 31.3838C41.7375 31.4671 41.4243 31.4355 41.1542 31.2956C40.6744 31.0079 40.2309 30.6636 39.8333 30.2701C39.5164 29.9603 39.2343 29.9009 38.8887 30.1419C38.4252 30.467 37.9831 30.8126 37.9124 31.4454C37.8634 31.8079 37.9584 32.1751 38.1769 32.4684C38.3955 32.7617 38.7202 32.9577 39.0815 33.0145C39.1591 33.0393 39.2331 33.0737 39.302 33.1171C38.8436 33.6996 38.4252 33.7509 37.7637 33.2976C37.7296 33.2743 37.6965 33.2509 37.6642 33.228C37.3677 33.0185 37.1297 32.8502 36.6673 33.1396C36.0335 33.5365 35.5556 33.154 35.5392 32.4084C35.5347 32.2081 35.5231 32.0075 35.5115 31.807C35.4966 31.5507 35.4818 31.2943 35.4818 31.0382C35.4816 30.8558 35.5275 30.6762 35.6151 30.5162C35.6956 30.3763 35.794 30.2469 35.8926 30.1173C35.981 30.001 36.0696 29.8846 36.1453 29.7604C36.9258 28.4815 38.0888 27.7266 39.4897 27.2928C39.5218 27.283 39.5614 27.297 39.6178 27.3169C39.6498 27.3282 39.6872 27.3415 39.7317 27.3533L39.1533 27.8661C39.1579 27.8948 39.1623 27.9233 39.1667 27.9518C39.171 27.9802 39.1754 28.0087 39.18 28.0374C39.3176 28.0432 39.4556 28.0538 39.5937 28.0645C39.8983 28.0879 40.2031 28.1115 40.503 28.0825L40.5427 28.0787C41.7601 27.962 42.9776 27.8453 44.195 28.0979Z" fill="#FF7F22"/>
        <circle cx="44" cy="44" r="42.5" stroke="#FF7F22" stroke-width="3"/>
    </symbol>
</svg>